#!OML:ASF F:\twosubjects\two\wednesday\Session 1\rory1.ASF
:FULLY-SPECIFIED
:DEGREES
66
root 19.0228 18.8353 9.24397 -177.216 -15.1084 -183.719
lowerback -1.02101 3.19623 1.24288
upperback -1.14083 4.23768 -0.0723103
thorax -0.501699 2.10283 -0.740607
lowerneck -13.68 0.26495 -1.12988
upperneck 21.0172 1.09226 -4.57714
head 8.86044 -0.304791 -1.27547
rclavicle 7.0817e-014 5.56597e-015
rhumerus 30.5472 -3.47258 -58.3942
rradius 26.5067
rwrist 15.9329
rhand 3.21886 35.6523
rfingers 7.12502
rthumb 28.6697 7.83222
lclavicle 7.0817e-014 5.56597e-015
lhumerus 44.2979 -28.944 47.9613
lradius 33.2785
lwrist 1.08551
lhand -12.0305 14.1208
lfingers 7.12502
lthumb 14.0276 43.6275
rfemur -11.4718 5.41566 18.2263
rtibia 26.2912
rfoot -11.3042 -14.7214
rtoes 17.5264
lfemur -14.6122 -2.32934 -9.55312
ltibia 51.4243
lfoot 6.2749 -9.0986
ltoes -16.6114
67
root 19.0429 18.8278 9.1085 -177.349 -14.341 -183.609
lowerback -1.02218 3.41732 1.40834
upperback -1.15893 4.53082 -0.057798
thorax -0.501743 2.24782 -0.815081
lowerneck -13.55 0.315289 -0.880157
upperneck 21.0619 1.0992 -4.58654
head 8.85198 -0.284229 -1.32002
rclavicle 1.00138e-014 -1.59028e-015
rhumerus 30.2666 -3.3027 -58.8498
rradius 26.7127
rwrist 15.7984
rhand 3.04005 35.4669
rfingers 7.12502
rthumb 28.4988 7.61809
lclavicle 1.00138e-014 -1.59028e-015
lhumerus 44.5944 -28.7693 47.4416
lradius 33.2929
lwrist 1.32048
lhand -12.399 14.7309
lfingers 7.12502
lthumb 13.6724 44.2618
rfemur -11.0613 5.41992 18.5421
rtibia 26.428
rfoot -11.9055 -14.027
rtoes 17.7241
lfemur -15.1054 -1.86315 -9.53856
ltibia 51.0529
lfoot 5.45824 -8.59627
ltoes -17.4002
68
root 19.0656 18.8229 8.97748 -177.295 -13.6918 -183.768
lowerback -1.36265 3.58509 1.23595
upperback -1.06586 4.7501 -0.0799164
thorax -0.222938 2.36094 -0.712772
lowerneck -13.6104 0.257871 -0.681382
upperneck 21.2135 0.984722 -4.64017
head 8.91309 -0.334224 -1.38761
rclavicle -3.85145e-014 -1.66979e-014
rhumerus 30.1341 -2.8461 -58.9698
rradius 26.9417
rwrist 15.3671
rhand 2.62152 35.3499
rfingers 7.12502
rthumb 28.0988 7.43476
lclavicle -3.85145e-014 -1.66979e-014
lhumerus 44.9577 -28.3964 47.0267
lradius 33.2672
lwrist 1.34455
lhand -12.2282 14.6995
lfingers 7.12502
lthumb 13.8371 44.2193
rfemur -10.7744 5.50298 18.5697
rtibia 26.5621
rfoot -12.4859 -13.5261
rtoes 17.9567
lfemur -15.7197 -1.5786 -9.78613
ltibia 50.5762
lfoot 4.88248 -8.13881
ltoes -16.1024
69
root 19.0892 18.8228 8.85306 -177.191 -13.1259 -184.061
lowerback -1.72858 3.61441 1.04465
upperback -0.902948 4.78789 -0.15721
thorax 0.140123 2.384 -0.652804
lowerneck -13.6171 0.238513 -0.681703
upperneck 21.187 0.947821 -4.59803
head 8.90403 -0.34609 -1.37705
rclavicle -7.44573e-014 7.95139e-016
rhumerus 30.3023 -2.2057 -59.1068
rradius 27.174
rwrist 15.0177
rhand 2.56387 35.4328
rfingers 7.12502
rthumb 28.0437 7.5086
lclavicle -7.44573e-014 7.95139e-016
lhumerus 45.1806 -27.7622 46.4082
lradius 33.2393
lwrist 1.17273
lhand -12.4748 14.0335
lfingers 7.12502
lthumb 13.5994 43.5693
rfemur -10.5391 5.63653 18.4443
rtibia 26.7048
rfoot -12.9749 -13.2111
rtoes 17.3818
lfemur -16.4066 -1.40064 -10.1711
ltibia 49.9909
lfoot 4.08644 -7.73794
ltoes -16.6918
70
root 19.1083 18.8198 8.72717 -177.157 -12.4317 -184.288
lowerback -1.76595 3.65005 1.00222
upperback -0.903564 4.83567 -0.233376
thorax 0.164347 2.40792 -0.703178
lowerneck -13.1641 0.25574 -0.85114
upperneck 20.7752 0.950551 -4.41188
head 8.6778 -0.321594 -1.27677
rclavicle -7.29043e-014 7.95139e-015
rhumerus 30.3852 -1.72969 -59.6232
rradius 27.3505
rwrist 15.1554
rhand 2.89087 35.5816
rfingers 7.12502
rthumb 28.3563 7.70899
lclavicle -7.29043e-014 7.95139e-015
lhumerus 45.0801 -27.1568 46.0194
lradius 33.1067
lwrist 0.941064
lhand -13.06 14.0529
lfingers 7.12502
lthumb 13.0353 43.6256
rfemur -10.1796 5.83149 18.3553
rtibia 26.7968
rfoot -13.4396 -12.789
rtoes 16.8814
lfemur -17.0051 -1.1656 -10.5139
ltibia 49.3288
lfoot 3.33581 -7.20321
ltoes -18.0664
71
root 19.1251 18.8115 8.59885 -177.172 -11.6104 -184.189
lowerback -1.84742 3.67468 1.13286
upperback -0.906983 4.86394 -0.122041
thorax 0.208062 2.42156 -0.655743
lowerneck -12.8235 0.326341 -1.05582
upperneck 20.3787 1.05422 -4.29654
head 8.48151 -0.261435 -1.18528
rclavicle -4.57702e-014 3.89618e-014
rhumerus 30.6189 -1.04052 -60.1202
rradius 27.4544
rwrist 15.1508
rhand 3.09153 35.8374
rfingers 7.12502
rthumb 28.548 7.99685
lclavicle -4.57702e-014 3.89618e-014
lhumerus 44.7794 -26.2486 46.0699
lradius 32.8697
lwrist 0.490384
lhand -12.8914 14.1939
lfingers 7.12502
lthumb 13.1979 43.7561
rfemur -9.79719 6.08559 18.5997
rtibia 26.7711
rfoot -13.6233 -12.3143
rtoes 16.7488
lfemur -17.5727 -0.784974 -10.4956
ltibia 48.6473
lfoot 2.60272 -6.77542
ltoes -19.0925
72
root 19.1448 18.803 8.47271 -177.408 -10.7931 -183.726
lowerback -1.82366 3.70356 1.5907
upperback -0.793214 4.8944 0.0586544
thorax 0.334306 2.43771 -0.720264
lowerneck -12.9926 0.389651 -1.11256
upperneck 20.5011 1.13977 -4.20216
head 8.55478 -0.221892 -1.13678
rclavicle -5.22058e-014 -7.95139e-015
rhumerus 30.8568 -0.151181 -60.3443
rradius 27.663
rwrist 14.7759
rhand 2.99227 35.8494
rfingers 7.12502
rthumb 28.4532 7.99291
lclavicle -5.22058e-014 -7.95139e-015
lhumerus 44.716 -25.2864 45.93
lradius 32.6132
lwrist -0.0234569
lhand -12.2838 14.233
lfingers 7.12502
lthumb 13.7835 43.7564
rfemur -9.25388 6.55847 19.2806
rtibia 26.6741
rfoot -13.8827 -11.9867
rtoes 17.3005
lfemur -17.9661 -0.451074 -10.0443
ltibia 47.9478
lfoot 1.77649 -6.29766
ltoes -21.2646
73
root 19.1613 18.7984 8.35425 -177.535 -10.1827 -183.361
lowerback -1.61225 3.75833 2.09208
upperback -0.86878 4.96319 0.0862027
thorax 0.180353 2.46854 -0.985076
lowerneck -13.0032 0.359464 -0.936631
upperneck 20.6828 1.05666 -4.22733
head 8.61723 -0.259296 -1.18689
rclavicle 2.32081e-014 2.38542e-014
rhumerus 30.6527 0.50887 -60.5035
rradius 27.9767
rwrist 14.5665
rhand 2.67502 35.8348
rfingers 7.12502
rthumb 28.15 7.92809
lclavicle 2.32081e-014 2.38542e-014
lhumerus 44.7866 -24.7418 45.5985
lradius 32.3519
lwrist -0.321964
lhand -11.4173 14.1497
lfingers 7.12502
lthumb 14.6185 43.6145
rfemur -8.80225 6.92485 19.8127
rtibia 26.5719
rfoot -14.3622 -11.5979
rtoes 18.5418
lfemur -18.531 -0.384669 -9.69143
ltibia 47.1997
lfoot 1.39396 -5.75298
ltoes -22.2045
74
root 19.1765 18.7963 8.23759 -177.411 -9.78958 -183.288
lowerback -1.54293 3.772 2.3276
upperback -1.04252 4.97943 -0.010675
thorax -0.00743077 2.47105 -1.2255
lowerneck -12.9801 0.257394 -0.741706
upperneck 20.7445 0.87705 -4.27848
head 8.63076 -0.337139 -1.25786
rclavicle -5.889e-015 5.56597e-015
rhumerus 30.1491 1.29328 -60.3974
rradius 28.5948
rwrist 13.9476
rhand 2.52853 35.8786
rfingers 7.12502
rthumb 28.0099 7.94886
lclavicle -5.889e-015 5.56597e-015
lhumerus 44.8683 -24.2493 45.3221
lradius 32.0552
lwrist -0.778988
lhand -10.3973 13.7547
lfingers 7.12502
lthumb 15.6011 43.1455
rfemur -8.52905 6.99508 19.9703
rtibia 26.4721
rfoot -14.5809 -11.1199
rtoes 18.9464
lfemur -19.3251 -0.712707 -9.64792
ltibia 46.3553
lfoot 1.14414 -5.26573
ltoes -21.468
75
root 19.197 18.7954 8.11514 -177.412 -9.39226 -183.183
lowerback -1.51082 3.66867 2.44006
upperback -1.05298 4.84077 0.0123499
thorax -0.0341731 2.40065 -1.26988
lowerneck -13.2574 0.211556 -0.722777
upperneck 20.8993 0.808811 -4.22968
head 8.73295 -0.368856 -1.25556
rclavicle -2.09718e-014 8.74653e-015
rhumerus 29.912 2.32486 -60.33
rradius 29.3324
rwrist 13.2766
rhand 2.53081 35.7724
rfingers 7.12502
rthumb 28.0121 7.84303
lclavicle -2.09718e-014 8.74653e-015
lhumerus 44.8535 -23.5963 44.9461
lradius 31.7773
lwrist -0.872662
lhand -11.0428 13.9785
lfingers 7.12502
lthumb 14.9793 43.4168
rfemur -8.07591 7.19767 20.2262
rtibia 26.3934
rfoot -14.5999 -10.8082
rtoes 18.4084
lfemur -19.9107 -1.34934 -9.53123
ltibia 45.4059
lfoot 0.586034 -4.43476
ltoes -21.3347
